<svg width="68" height="74" viewBox="0 0 68 74" fill="none" xmlns="http://www.w3.org/2000/svg">
<rect x="25.5106" y="28.0481" width="17.1493" height="17.1493" fill="black"/>
<path fill-rule="evenodd" clip-rule="evenodd" d="M40.4798 3C43.44 2.99988 46.3339 3.8776 48.7954 5.52216C51.2568 7.16672 53.1753 9.50426 54.3083 12.2392C55.4412 14.9741 55.7377 17.9836 55.1602 20.887C54.5828 23.7904 53.1573 26.4574 51.0641 28.5507C48.9709 30.644 46.304 32.0695 43.4006 32.6471C40.4972 33.2247 37.4877 32.9283 34.7527 31.7955C32.0178 30.6627 29.6802 28.7443 28.0355 26.2829C26.3908 23.8215 25.513 20.9277 25.513 17.9674C25.5132 13.9979 27.09 10.1911 29.8968 7.38424C32.7036 4.57737 36.5103 3.00033 40.4798 3Z" fill="black" stroke="black" stroke-width="0.123376"/>
<path d="M16.9668 45.9604C25.2327 45.9604 31.9335 39.2595 31.9335 30.9936C31.9335 22.7277 25.2327 16.0269 16.9668 16.0269C8.70085 16.0269 2 22.7277 2 30.9936C2 39.2595 8.70085 45.9604 16.9668 45.9604Z" fill="black" stroke="black" stroke-width="0.123376"/>
<path d="M26.8794 70.5591C35.1457 70.5591 41.8468 63.858 41.8468 55.5918C41.8468 47.3255 35.1457 40.6244 26.8794 40.6244C18.6132 40.6244 11.912 47.3255 11.912 55.5918C11.912 63.858 18.6132 70.5591 26.8794 70.5591Z" fill="black" stroke="black" stroke-width="0.123376"/>
<path d="M50.3012 58.0325C58.5674 58.0325 65.2686 51.3314 65.2686 43.0652C65.2686 34.7989 58.5674 28.0978 50.3012 28.0978C42.0349 28.0978 35.3338 34.7989 35.3338 43.0652C35.3338 51.3314 42.0349 58.0325 50.3012 58.0325Z" fill="black" stroke="black" stroke-width="0.123376"/>
<path d="M50.3012 55.1189C56.9573 55.1189 62.3532 49.723 62.3532 43.0669C62.3532 36.4108 56.9573 31.0149 50.3012 31.0149C43.645 31.0149 38.2491 36.4108 38.2491 43.0669C38.2491 49.723 43.645 55.1189 50.3012 55.1189Z" fill="#6A6C77" stroke="black" stroke-width="0.123376"/>
<path d="M26.8788 67.6152C33.5203 67.6152 38.9043 62.2312 38.9043 55.5897C38.9043 48.9482 33.5203 43.5642 26.8788 43.5642C20.2373 43.5642 14.8533 48.9482 14.8533 55.5897C14.8533 62.2312 20.2373 67.6152 26.8788 67.6152Z" fill="#6A6C77" stroke="black" stroke-width="0.123376"/>
<path d="M16.9593 43.1466C23.6158 43.1466 29.0119 37.7505 29.0119 31.094C29.0119 24.4375 23.6158 19.0414 16.9593 19.0414C10.3028 19.0414 4.90671 24.4375 4.90671 31.094C4.90671 37.7505 10.3028 43.1466 16.9593 43.1466Z" fill="#6A6C77" stroke="black" stroke-width="0.123376"/>
<path fill-rule="evenodd" clip-rule="evenodd" d="M39.8579 5.93175C42.2384 5.80861 44.602 6.39413 46.6498 7.61428C48.6975 8.83442 50.3374 10.6344 51.3622 12.7866C52.387 14.9387 52.7505 17.3465 52.4069 19.7053C52.0633 22.0641 51.0279 24.268 49.4318 26.0384C47.8356 27.8087 45.7503 29.066 43.4395 29.6513C41.1288 30.2365 38.6964 30.1234 36.45 29.3262C34.2035 28.529 32.2439 27.0836 30.8189 25.1728C29.394 23.2619 28.5676 20.9714 28.4444 18.5909C28.3625 17.0102 28.5927 15.4289 29.122 13.9372C29.6513 12.4456 30.4692 11.0728 31.5291 9.89724C32.589 8.7217 33.87 7.76646 35.2991 7.08605C36.7281 6.40565 38.2773 6.01341 39.8579 5.93175Z" fill="#6A6C77" stroke="black" stroke-width="0.123376"/>
<path fill-rule="evenodd" clip-rule="evenodd" d="M44.1168 53.4309C46.1645 54.651 48.5281 55.2366 50.9086 55.1134C52.4893 55.0318 54.0384 54.6395 55.4674 53.9591C56.8965 53.2787 58.1775 52.3235 59.2374 51.1479C60.2973 49.9724 61.1152 48.5996 61.6445 47.1079C62.1738 45.6163 62.404 44.0349 62.3221 42.4543C62.1989 40.0738 61.3725 37.7833 59.9476 35.8724C59.8087 35.6862 59.6648 35.5044 59.516 35.3272C60.6001 37.0599 61.2287 39.0449 61.3349 41.0967C61.4168 42.6774 61.1865 44.2587 60.6573 45.7504C60.128 47.2421 59.3101 48.6149 58.2502 49.7904C57.1903 50.9659 55.9093 51.9212 54.4802 52.6016C53.0511 53.282 51.502 53.6742 49.9213 53.7559C47.5408 53.879 45.1773 53.2935 43.1295 52.0734C41.9645 51.3792 40.9315 50.4973 40.0687 49.4697C41.0807 51.0873 42.4663 52.4474 44.1168 53.4309Z" fill="url(#paint0_linear_105_66)"/>
<path fill-rule="evenodd" clip-rule="evenodd" d="M56.5632 32.8308C54.5154 31.6107 52.1519 31.0252 49.7714 31.1483C48.1907 31.23 46.6416 31.6222 45.2125 32.3026C43.7834 32.983 42.5024 33.9383 41.4425 35.1138C40.3826 36.2893 39.5647 37.6621 39.0354 39.1538C38.5062 40.6455 38.2759 42.2268 38.3578 43.8074C38.481 46.1879 39.3074 48.4785 40.7324 50.3893C40.8711 50.5754 41.0149 50.757 41.1636 50.9341C40.0797 49.2016 39.4512 47.2167 39.345 45.1651C39.2631 43.5844 39.4934 42.0031 40.0226 40.5114C40.5519 39.0197 41.3699 37.6469 42.4297 36.4714C43.4896 35.2959 44.7706 34.3406 46.1997 33.6602C47.6288 32.9798 49.1779 32.5876 50.7586 32.5059C53.1391 32.3828 55.5026 32.9683 57.5504 34.1884C58.7155 34.8827 59.7486 35.7647 60.6115 36.7924C59.5995 35.1746 58.2138 33.8144 56.5632 32.8308Z" fill="#9B9DAA"/>
<path fill-rule="evenodd" clip-rule="evenodd" d="M20.6752 65.8918C22.7229 67.112 25.0865 67.6975 27.467 67.5744C29.0477 67.4927 30.5968 67.1005 32.0259 66.42C33.4549 65.7396 34.736 64.7844 35.7958 63.6089C36.8557 62.4333 37.6736 61.0605 38.2029 59.5689C38.7322 58.0772 38.9624 56.4959 38.8805 54.9152C38.7573 52.5347 37.931 50.2442 36.506 48.3333C36.3671 48.1471 36.2231 47.9652 36.0743 47.788C37.1584 49.5207 37.7871 51.5058 37.8933 53.5578C37.9752 55.1384 37.745 56.7198 37.2157 58.2114C36.6864 59.7031 35.8685 61.0759 34.8086 62.2514C33.7487 63.427 32.4677 64.3822 31.0386 65.0626C29.6096 65.743 28.0604 66.1352 26.4798 66.2169C24.0993 66.34 21.7357 65.7545 19.6879 64.5344C18.523 63.8403 17.4901 62.9585 16.6273 61.931C17.6393 63.5484 19.0248 64.9084 20.6752 65.8918Z" fill="url(#paint1_linear_105_66)"/>
<path fill-rule="evenodd" clip-rule="evenodd" d="M33.1217 45.2918C31.074 44.0716 28.7104 43.4861 26.3299 43.6092C24.7492 43.6909 23.2001 44.0831 21.771 44.7635C20.3419 45.4439 19.0609 46.3992 18.001 47.5747C16.9412 48.7503 16.1233 50.1231 15.594 51.6147C15.0647 53.1064 14.8344 54.6877 14.9164 56.2684C15.0396 58.6489 15.8659 60.9394 17.2909 62.8503C17.4297 63.0364 17.5735 63.218 17.7222 63.3952C16.6383 61.6626 16.0098 59.6778 15.9036 57.6261C15.8217 56.0454 16.052 54.4641 16.5813 52.9724C17.1105 51.4808 17.9285 50.108 18.9883 48.9324C20.0482 47.7569 21.3292 46.8017 22.7583 46.1212C24.1874 45.4408 25.7365 45.0486 27.3172 44.9669C29.6977 44.8438 32.0612 45.4293 34.109 46.6495C35.2741 47.3437 36.3072 48.2256 37.1701 49.2534C36.158 47.6356 34.7723 46.2753 33.1217 45.2918Z" fill="#9B9DAA"/>
<path fill-rule="evenodd" clip-rule="evenodd" d="M34.2466 28.2622C36.2944 29.4823 38.6579 30.0679 41.0384 29.9447C42.6191 29.8631 44.1682 29.4708 45.5973 28.7904C47.0264 28.11 48.3074 27.1548 49.3673 25.9792C50.4271 24.8037 51.2451 23.4309 51.7743 21.9392C52.3036 20.4476 52.5339 18.8662 52.452 17.2856C52.3287 14.9051 51.5024 12.6146 50.0774 10.7037C49.9386 10.5175 49.7946 10.3357 49.6458 10.1585C50.7299 11.8912 51.3585 13.8762 51.4647 15.9281C51.5467 17.5088 51.3164 19.0901 50.7871 20.5817C50.2579 22.0734 49.4399 23.4462 48.3801 24.6217C47.3202 25.7973 46.0392 26.7525 44.6101 27.4329C43.181 28.1133 41.6319 28.5056 40.0512 28.5872C37.6707 28.7104 35.3071 28.1248 33.2594 26.9047C32.0944 26.2105 31.0614 25.3287 30.1986 24.3011C31.2106 25.9187 32.5962 27.2788 34.2466 28.2622Z" fill="url(#paint2_linear_105_66)"/>
<path fill-rule="evenodd" clip-rule="evenodd" d="M46.6931 7.66213C44.6454 6.44198 42.2818 5.85646 39.9013 5.9796C38.3206 6.06127 36.7715 6.4535 35.3424 7.13391C33.9134 7.81431 32.6323 8.76955 31.5725 9.94509C30.5126 11.1206 29.6947 12.4934 29.1654 13.9851C28.6361 15.4768 28.4059 17.0581 28.4878 18.6387C28.611 21.0192 29.4373 23.3097 30.8623 25.2206C31.0011 25.4068 31.1451 25.5886 31.2938 25.7657C30.2098 24.0331 29.5812 22.0481 29.475 19.9963C29.3931 18.4156 29.6233 16.8343 30.1526 15.3426C30.6819 13.851 31.4998 12.4782 32.5597 11.3026C33.6196 10.1271 34.9006 9.17186 36.3297 8.49145C37.7587 7.81105 39.3079 7.41881 40.8885 7.33714C43.269 7.214 45.6326 7.79953 47.6803 9.01968C48.8454 9.71386 49.8784 10.5957 50.7412 11.6233C49.7292 10.0057 48.3436 8.64558 46.6931 7.66213Z" fill="#9B9DAA"/>
<path fill-rule="evenodd" clip-rule="evenodd" d="M10.8051 41.3401C12.8529 42.5602 15.2164 43.1457 17.5969 43.0226C19.1776 42.9409 20.7267 42.5487 22.1558 41.8683C23.5849 41.1879 24.8659 40.2326 25.9258 39.0571C26.9856 37.8816 27.8036 36.5088 28.3328 35.0171C28.8621 33.5254 29.0924 31.9441 29.0105 30.3635C28.8872 27.983 28.0609 25.6924 26.6359 23.7816C26.4969 23.5952 26.3529 23.4133 26.2039 23.2359C27.2883 24.9687 27.917 26.954 28.0232 29.0061C28.1051 30.5868 27.8749 32.1681 27.3456 33.6598C26.8163 35.1514 25.9984 36.5242 24.9385 37.6998C23.8787 38.8753 22.5976 39.8305 21.1686 40.5109C19.7395 41.1913 18.1904 41.5836 16.6097 41.6652C14.2292 41.7884 11.8656 41.2029 9.81789 39.9827C8.65308 39.2887 7.62022 38.407 6.75747 37.3796C7.76949 38.9969 9.15488 40.3568 10.8051 41.3401Z" fill="url(#paint3_linear_105_66)"/>
<path fill-rule="evenodd" clip-rule="evenodd" d="M23.2516 20.74C21.2039 19.5199 18.8403 18.9343 16.4598 19.0575C14.8792 19.1391 13.33 19.5314 11.901 20.2118C10.4719 20.8922 9.19086 21.8474 8.13099 23.023C7.07112 24.1985 6.2532 25.5713 5.72392 27.063C5.19465 28.5546 4.96439 30.136 5.0463 31.7166C5.16951 34.0971 5.99586 36.3876 7.42084 38.2985C7.55961 38.4846 7.70346 38.6663 7.85214 38.8434C6.7682 37.1108 6.13968 35.1259 6.03348 33.0742C5.95157 31.4935 6.18183 29.9122 6.7111 28.4205C7.24037 26.9289 8.0583 25.5561 9.11817 24.3805C10.178 23.205 11.4591 22.2497 12.8881 21.5693C14.3172 20.8889 15.8663 20.4967 17.447 20.415C19.8275 20.2919 22.1911 20.8774 24.2388 22.0976C25.4039 22.7918 26.437 23.6737 27.2999 24.7015C26.2879 23.0837 24.9022 21.7235 23.2516 20.74Z" fill="#9B9DAA"/>
<path d="M50.3012 55.1189C56.9573 55.1189 62.3532 49.723 62.3532 43.0669C62.3532 36.4108 56.9573 31.0149 50.3012 31.0149C43.645 31.0149 38.2491 36.4108 38.2491 43.0669C38.2491 49.723 43.645 55.1189 50.3012 55.1189Z" fill="#F4FAFF" stroke="black" stroke-width="0.123376"/>
<defs>
<linearGradient id="paint0_linear_105_66" x1="58.452" y1="53.34" x2="50.6794" y2="42.6679" gradientUnits="userSpaceOnUse">
<stop offset="0.26" stop-color="#42444C"/>
<stop offset="1" stop-color="#6A6C77"/>
</linearGradient>
<linearGradient id="paint1_linear_105_66" x1="35.0104" y1="65.801" x2="27.2377" y2="55.1289" gradientUnits="userSpaceOnUse">
<stop offset="0.26" stop-color="#42444C"/>
<stop offset="1" stop-color="#6A6C77"/>
</linearGradient>
<linearGradient id="paint2_linear_105_66" x1="48.5819" y1="28.1714" x2="40.8093" y2="17.4993" gradientUnits="userSpaceOnUse">
<stop offset="0.26" stop-color="#42444C"/>
<stop offset="1" stop-color="#6A6C77"/>
</linearGradient>
<linearGradient id="paint3_linear_105_66" x1="25.1404" y1="41.2492" x2="17.3676" y2="30.5772" gradientUnits="userSpaceOnUse">
<stop offset="0.26" stop-color="#42444C"/>
<stop offset="1" stop-color="#6A6C77"/>
</linearGradient>
</defs>
</svg>
