<svg width="68" height="74" viewBox="0 0 68 74" fill="none" xmlns="http://www.w3.org/2000/svg">
<g clip-path="url(#clip0_104_5)">
<path d="M48.9186 16.0157L39.9151 25.0191L22.8094 7.91336C21.9824 7.08636 20.6416 7.08636 19.8146 7.91335L4.91334 22.8146C4.08635 23.6416 4.08634 24.9824 4.91334 25.8094L22.0191 42.9151L13.1191 51.8151C10.8281 54.1061 12.4556 58.0231 15.6956 58.016L50.476 57.9395C53.3255 57.9332 55.6211 55.6007 55.5819 52.7514L55.111 18.5309C55.0669 15.3233 51.1869 13.7473 48.9186 16.0157Z" fill="#F5FAFD" stroke="black" stroke-width="2.23531"/>
<path d="M22.9055 14.8934L40.383 32.371C40.9057 32.8936 41.753 32.8936 42.2756 32.371L49.1299 25.5167L49.2329 51.5259L23.2238 51.4228L30.078 44.5685C30.6007 44.0459 30.6007 43.1986 30.078 42.676L12.6005 25.1984C12.5373 25.1352 12.5373 25.0328 12.6005 24.9697L22.6767 14.8934C22.7399 14.8302 22.8423 14.8303 22.9055 14.8934Z" stroke="black" stroke-width="1.67648"/>
</g>
<defs>
<clipPath id="clip0_104_5">
<rect width="68" height="74" fill="white"/>
</clipPath>
</defs>
</svg>
