<svg width="68" height="74" viewBox="0 0 68 74" fill="none" xmlns="http://www.w3.org/2000/svg">
<g clip-path="url(#clip0_104_17)">
<path d="M54.3051 51.9186L45.3016 42.9152L62.4074 25.8095C63.2344 24.9825 63.2344 23.6416 62.4074 22.8146L47.5062 7.9134C46.6792 7.08641 45.3383 7.0864 44.5113 7.9134L27.4056 25.0191L18.5056 16.1192C16.2146 13.8282 12.2977 15.4557 12.3048 18.6957L12.3813 53.476C12.3875 56.3255 14.7201 58.6211 17.5693 58.5819L51.7898 58.1111C54.9974 58.0669 56.5734 54.1869 54.3051 51.9186Z" fill="#F5FAFD" stroke="black" stroke-width="2.23531"/>
<path d="M55.4273 25.9056L37.9498 43.3831C37.4272 43.9057 37.4272 44.753 37.9498 45.2757L44.8041 52.1299L18.7949 52.233L18.8979 26.2238L25.7522 33.0781C26.2748 33.6007 27.1222 33.6007 27.6448 33.0781L45.1223 15.6006C45.1855 15.5374 45.2879 15.5374 45.3511 15.6006L55.4273 25.6768C55.4905 25.74 55.4905 25.8424 55.4273 25.9056Z" fill="black" stroke="black" stroke-width="1.67648"/>
</g>
<defs>
<clipPath id="clip0_104_17">
<rect width="68" height="74" fill="white"/>
</clipPath>
</defs>
</svg>
