<svg width="68" height="74" viewBox="0 0 68 74" fill="none" xmlns="http://www.w3.org/2000/svg">
<g clip-path="url(#clip0_104_5)">
<path d="M13.0157 21.4022L22.0191 30.4056L4.91336 47.5113C4.08636 48.3383 4.08636 49.6792 4.91335 50.5062L19.8146 65.4074C20.6416 66.2344 21.9824 66.2344 22.8094 65.4074L39.9151 48.3017L48.8151 57.2016C51.1061 59.4926 55.0231 57.8651 55.016 54.6251L54.9395 19.8448C54.9332 16.9953 52.6007 14.6997 49.7514 14.7389L15.5309 15.2097C12.3233 15.2539 10.7473 19.1339 13.0157 21.4022Z" fill="#F5FAFD" stroke="black" stroke-width="2.23531"/>
<path d="M11.8934 47.4152L29.371 29.9377C29.8936 29.4151 29.8936 28.5678 29.371 28.0451L22.5167 21.1909L48.5259 21.0878L48.4228 47.097L41.5685 40.2427C41.0459 39.7201 40.1986 39.7201 39.676 40.2427L22.1984 57.7202C22.1352 57.7834 22.0328 57.7834 21.9697 57.7202L11.8934 47.644C11.8302 47.5808 11.8303 47.4784 11.8934 47.4152Z" stroke="black" stroke-width="1.67648"/>
</g>
<defs>
<clipPath id="clip0_104_5">
<rect width="68" height="74" fill="white"/>
</clipPath>
</defs>
</svg>
