<svg width="68" height="74" viewBox="0 0 68 74" fill="none" xmlns="http://www.w3.org/2000/svg">
<g clip-path="url(#clip0_104_5)">
<path d="M18.4022 57.3051L27.4056 48.3017L44.5113 65.4074C45.3383 66.2344 46.6792 66.2344 47.5062 65.4074L62.4074 50.5062C63.2344 49.6792 63.2344 48.3384 62.4074 47.5114L45.3017 30.4057L54.2016 21.5057C56.4926 19.2147 54.8651 15.2977 51.6251 15.3048L16.8448 15.3813C13.9953 15.3876 11.6997 17.7201 11.7389 20.5694L12.2097 54.7899C12.2539 57.9975 16.1339 59.5735 18.4022 57.3051Z" fill="#F5FAFD" stroke="black" stroke-width="2.23531"/>
<path d="M44.4152 58.4274L26.9377 40.9498C26.4151 40.4272 25.5678 40.4272 25.0451 40.9498L18.1909 47.8041L18.0878 21.7949L44.097 21.898L37.2427 28.7523C36.7201 29.2749 36.7201 30.1222 37.2427 30.6448L54.7202 48.1224C54.7834 48.1856 54.7834 48.288 54.7202 48.3511L44.644 58.4274C44.5808 58.4906 44.4784 58.4905 44.4152 58.4274Z" stroke="black" stroke-width="1.67648"/>
</g>
<defs>
<clipPath id="clip0_104_5">
<rect width="68" height="74" fill="white"/>
</clipPath>
</defs>
</svg>
