<svg width="68" height="74" viewBox="0 0 68 74" fill="none" xmlns="http://www.w3.org/2000/svg">
<path d="M8.94369 40.8088H21.6765V65C21.6765 66.1695 22.6246 67.1177 23.7941 67.1177H44.8676C46.0372 67.1177 46.9853 66.1695 46.9853 65V40.8088H59.5717C62.8117 40.8088 64.4306 36.8883 62.1346 34.6023L37.487 10.063C35.4677 8.05249 32.1951 8.0786 30.2081 10.1211L6.3435 34.6516C4.10661 36.9509 5.7358 40.8088 8.94369 40.8088Z" fill="#F5FAFD" stroke="black" stroke-width="2.23531"/>
<path d="M26.5441 59.9963V35.2794C26.5441 34.5403 25.945 33.9411 25.2059 33.9411H15.5125L33.8309 15.477L52.1492 33.9411H42.4558C41.7167 33.9411 41.1176 34.5403 41.1176 35.2794V59.9963C41.1176 60.0857 41.0452 60.1581 40.9558 60.1581H26.7059C26.6165 60.1581 26.5441 60.0857 26.5441 59.9963Z" fill="black" stroke="black" stroke-width="1.67648"/>
</svg>
