<svg width="67" height="74" viewBox="0 0 67 74" fill="none" xmlns="http://www.w3.org/2000/svg">
<mask id="path-1-outside-1_104_3" maskUnits="userSpaceOnUse" x="-1" y="23" width="69" height="29" fill="black">
<rect fill="white" x="-1" y="23" width="69" height="29"/>
<path d="M1.59039 27.6232V25.0505H19.5525V27.6232H12.0215V49H9.12138V27.6232H1.59039ZM28.5803 49.3742C26.8496 49.3742 25.3567 48.9922 24.1015 48.2282C22.8541 47.4564 21.8913 46.3805 21.2131 45.0006C20.5426 43.6129 20.2074 41.9991 20.2074 40.1593C20.2074 38.3194 20.5426 36.6978 21.2131 35.2945C21.8913 33.8835 22.8346 32.7842 24.043 31.9968C25.2592 31.2016 26.6781 30.804 28.2997 30.804C29.2352 30.804 30.159 30.9599 31.0712 31.2718C31.9833 31.5836 32.8136 32.0904 33.562 32.792C34.3104 33.4859 34.9068 34.4058 35.3512 35.5518C35.7956 36.6978 36.0178 38.1089 36.0178 39.7851V40.9545H22.172V38.5689H33.2112C33.2112 37.5554 33.0085 36.6511 32.6031 35.8559C32.2055 35.0607 31.6364 34.4331 30.8958 33.9731C30.1629 33.5131 29.2976 33.2832 28.2997 33.2832C27.2004 33.2832 26.2493 33.556 25.4463 34.1017C24.6511 34.6397 24.0391 35.3413 23.6103 36.2067C23.1816 37.072 22.9672 37.9998 22.9672 38.9899V40.5803C22.9672 41.9368 23.2011 43.0867 23.6688 44.03C24.1444 44.9655 24.8031 45.6789 25.6451 46.17C26.4871 46.6534 27.4655 46.8951 28.5803 46.8951C29.3054 46.8951 29.9602 46.7937 30.5449 46.591C31.1374 46.3805 31.6481 46.0687 32.0769 45.6555C32.5056 45.2345 32.837 44.7122 33.0709 44.0885L35.7371 44.8369C35.4564 45.7412 34.9848 46.5364 34.3221 47.2225C33.6595 47.9008 32.8409 48.4309 31.8664 48.8129C30.8919 49.1871 29.7965 49.3742 28.5803 49.3742ZM41.7917 31.0379L46.0951 38.3818L50.3986 31.0379H53.5793L47.7791 40.0189L53.5793 49H50.3986L46.0951 42.0303L41.7917 49H38.6109L44.3176 40.0189L38.6109 31.0379H41.7917ZM65.329 31.0379V33.3767H56.0205V31.0379H65.329ZM58.7335 26.7345H61.4933V43.8546C61.4933 44.6342 61.6064 45.2189 61.8324 45.6087C62.0663 45.9907 62.3626 46.248 62.7212 46.3805C63.0876 46.5053 63.4735 46.5676 63.8789 46.5676C64.183 46.5676 64.4324 46.552 64.6273 46.5209C64.8222 46.4819 64.9782 46.4507 65.0951 46.4273L65.6564 48.9064C65.4693 48.9766 65.2081 49.0468 64.8729 49.1169C64.5377 49.1949 64.1128 49.2339 63.5983 49.2339C62.8186 49.2339 62.0546 49.0663 61.3062 48.731C60.5656 48.3958 59.9497 47.8852 59.4585 47.1991C58.9752 46.5131 58.7335 45.6477 58.7335 44.603V26.7345Z"/>
</mask>
<path d="M1.59039 27.6232V25.0505H19.5525V27.6232H12.0215V49H9.12138V27.6232H1.59039ZM28.5803 49.3742C26.8496 49.3742 25.3567 48.9922 24.1015 48.2282C22.8541 47.4564 21.8913 46.3805 21.2131 45.0006C20.5426 43.6129 20.2074 41.9991 20.2074 40.1593C20.2074 38.3194 20.5426 36.6978 21.2131 35.2945C21.8913 33.8835 22.8346 32.7842 24.043 31.9968C25.2592 31.2016 26.6781 30.804 28.2997 30.804C29.2352 30.804 30.159 30.9599 31.0712 31.2718C31.9833 31.5836 32.8136 32.0904 33.562 32.792C34.3104 33.4859 34.9068 34.4058 35.3512 35.5518C35.7956 36.6978 36.0178 38.1089 36.0178 39.7851V40.9545H22.172V38.5689H33.2112C33.2112 37.5554 33.0085 36.6511 32.6031 35.8559C32.2055 35.0607 31.6364 34.4331 30.8958 33.9731C30.1629 33.5131 29.2976 33.2832 28.2997 33.2832C27.2004 33.2832 26.2493 33.556 25.4463 34.1017C24.6511 34.6397 24.0391 35.3413 23.6103 36.2067C23.1816 37.072 22.9672 37.9998 22.9672 38.9899V40.5803C22.9672 41.9368 23.2011 43.0867 23.6688 44.03C24.1444 44.9655 24.8031 45.6789 25.6451 46.17C26.4871 46.6534 27.4655 46.8951 28.5803 46.8951C29.3054 46.8951 29.9602 46.7937 30.5449 46.591C31.1374 46.3805 31.6481 46.0687 32.0769 45.6555C32.5056 45.2345 32.837 44.7122 33.0709 44.0885L35.7371 44.8369C35.4564 45.7412 34.9848 46.5364 34.3221 47.2225C33.6595 47.9008 32.8409 48.4309 31.8664 48.8129C30.8919 49.1871 29.7965 49.3742 28.5803 49.3742ZM41.7917 31.0379L46.0951 38.3818L50.3986 31.0379H53.5793L47.7791 40.0189L53.5793 49H50.3986L46.0951 42.0303L41.7917 49H38.6109L44.3176 40.0189L38.6109 31.0379H41.7917ZM65.329 31.0379V33.3767H56.0205V31.0379H65.329ZM58.7335 26.7345H61.4933V43.8546C61.4933 44.6342 61.6064 45.2189 61.8324 45.6087C62.0663 45.9907 62.3626 46.248 62.7212 46.3805C63.0876 46.5053 63.4735 46.5676 63.8789 46.5676C64.183 46.5676 64.4324 46.552 64.6273 46.5209C64.8222 46.4819 64.9782 46.4507 65.0951 46.4273L65.6564 48.9064C65.4693 48.9766 65.2081 49.0468 64.8729 49.1169C64.5377 49.1949 64.1128 49.2339 63.5983 49.2339C62.8186 49.2339 62.0546 49.0663 61.3062 48.731C60.5656 48.3958 59.9497 47.8852 59.4585 47.1991C58.9752 46.5131 58.7335 45.6477 58.7335 44.603V26.7345Z" fill="white"/>
<path d="M1.59039 27.6232H-0.409605V29.6232H1.59039V27.6232ZM1.59039 25.0505V23.0505H-0.409605V25.0505H1.59039ZM19.5525 25.0505H21.5525V23.0505H19.5525V25.0505ZM19.5525 27.6232V29.6232H21.5525V27.6232H19.5525ZM12.0215 27.6232V25.6232H10.0215V27.6232H12.0215ZM12.0215 49V51H14.0215V49H12.0215ZM9.12138 49H7.12138V51H9.12138V49ZM9.12138 27.6232H11.1214V25.6232H9.12138V27.6232ZM3.59039 27.6232V25.0505H-0.409605V27.6232H3.59039ZM1.59039 27.0505H19.5525V23.0505H1.59039V27.0505ZM17.5525 25.0505V27.6232H21.5525V25.0505H17.5525ZM19.5525 25.6232H12.0215V29.6232H19.5525V25.6232ZM10.0215 27.6232V49H14.0215V27.6232H10.0215ZM12.0215 47H9.12138V51H12.0215V47ZM11.1214 49V27.6232H7.12138V49H11.1214ZM9.12138 25.6232H1.59039V29.6232H9.12138V25.6232ZM24.1015 48.2282L23.0492 49.9289L23.0554 49.9328L23.0616 49.9366L24.1015 48.2282ZM21.2131 45.0006L19.4122 45.8707L19.4182 45.8829L21.2131 45.0006ZM21.2131 35.2945L19.4105 34.4281L19.4085 34.4323L21.2131 35.2945ZM24.043 31.9968L25.1349 33.6725L25.1375 33.6707L24.043 31.9968ZM31.0712 31.2718L31.7182 29.3793L31.7182 29.3793L31.0712 31.2718ZM33.562 32.792L32.1941 34.2511L32.2023 34.2587L33.562 32.792ZM35.3512 35.5518L37.2159 34.8288L37.2159 34.8288L35.3512 35.5518ZM36.0178 40.9545V42.9545H38.0178V40.9545H36.0178ZM22.172 40.9545H20.172V42.9545H22.172V40.9545ZM22.172 38.5689V36.5689H20.172V38.5689H22.172ZM33.2112 38.5689V40.5689H35.2112V38.5689H33.2112ZM32.6031 35.8559L30.8142 36.7503L30.8177 36.7573L30.8213 36.7642L32.6031 35.8559ZM30.8958 33.9731L29.8325 35.6671L29.8406 35.6721L30.8958 33.9731ZM25.4463 34.1017L26.5669 35.7583L26.5705 35.7559L25.4463 34.1017ZM23.6103 36.2067L21.8183 35.3187L21.8183 35.3187L23.6103 36.2067ZM23.6688 44.03L21.877 44.9185L21.8814 44.9274L21.8859 44.9363L23.6688 44.03ZM25.6451 46.17L24.6374 47.8976L24.6494 47.9045L25.6451 46.17ZM30.5449 46.591L31.2 48.4807L31.2073 48.4782L31.2145 48.4756L30.5449 46.591ZM32.0769 45.6555L33.4646 47.0956L33.4714 47.0892L33.478 47.0826L32.0769 45.6555ZM33.0709 44.0885L33.6114 42.1629L31.8431 41.6665L31.1982 43.3862L33.0709 44.0885ZM35.7371 44.8369L37.6472 45.4297L38.2564 43.4668L36.2776 42.9113L35.7371 44.8369ZM34.3221 47.2225L35.7527 48.6202L35.7606 48.612L34.3221 47.2225ZM31.8664 48.8129L32.5833 50.68L32.5963 50.6749L31.8664 48.8129ZM28.5803 47.3742C27.1504 47.3742 26.0313 47.0615 25.1414 46.5198L23.0616 49.9366C24.682 50.9229 26.5488 51.3742 28.5803 51.3742V47.3742ZM25.1538 46.5274C24.2417 45.9631 23.5289 45.1782 23.008 44.1184L19.4182 45.8829C20.2538 47.5829 21.4665 48.9497 23.0492 49.9289L25.1538 46.5274ZM23.0139 44.1306C22.4975 43.0618 22.2074 41.7556 22.2074 40.1593H18.2074C18.2074 42.2427 18.5877 44.1641 19.4122 45.8707L23.0139 44.1306ZM22.2074 40.1593C22.2074 38.5637 22.4973 37.2459 23.0177 36.1567L19.4085 34.4323C18.5879 36.1498 18.2074 38.0751 18.2074 40.1593H22.2074ZM23.0156 36.161C23.5495 35.0503 24.259 34.2432 25.1349 33.6725L22.9512 30.3212C21.4103 31.3252 20.2332 32.7166 19.4105 34.4281L23.0156 36.161ZM25.1375 33.6707C25.9913 33.1125 27.0202 32.804 28.2997 32.804V28.804C26.336 28.804 24.5271 29.2907 22.9485 30.3229L25.1375 33.6707ZM28.2997 32.804C29.0084 32.804 29.7139 32.9214 30.4242 33.1642L31.7182 29.3793C30.6042 28.9985 29.462 28.804 28.2997 28.804V32.804ZM30.4242 33.1642C31.051 33.3785 31.639 33.7307 32.1941 34.2511L34.9299 31.3329C33.9881 30.45 32.9156 29.7887 31.7182 29.3793L30.4242 33.1642ZM32.2023 34.2587C32.6872 34.7083 33.1297 35.3547 33.4865 36.2749L37.2159 34.8288C36.684 33.4568 35.9336 32.2635 34.9217 31.3253L32.2023 34.2587ZM33.4865 36.2749C33.8154 37.1231 34.0178 38.2722 34.0178 39.7851H38.0178C38.0178 37.9457 37.7758 36.2725 37.2159 34.8288L33.4865 36.2749ZM34.0178 39.7851V40.9545H38.0178V39.7851H34.0178ZM36.0178 38.9545H22.172V42.9545H36.0178V38.9545ZM24.172 40.9545V38.5689H20.172V40.9545H24.172ZM22.172 40.5689H33.2112V36.5689H22.172V40.5689ZM35.2112 38.5689C35.2112 37.2827 34.9521 36.06 34.3849 34.9475L30.8213 36.7642C31.0649 37.2421 31.2112 37.8281 31.2112 38.5689H35.2112ZM34.3919 34.9614C33.8324 33.8422 33.0123 32.9333 31.9509 32.2741L29.8406 35.6721C30.2605 35.9329 30.5786 36.2791 30.8142 36.7503L34.3919 34.9614ZM31.959 32.2791C30.8611 31.5901 29.6148 31.2832 28.2997 31.2832V35.2832C28.9803 35.2832 29.4647 35.4362 29.8325 35.6671L31.959 32.2791ZM28.2997 31.2832C26.8544 31.2832 25.4994 31.6475 24.3221 32.4476L26.5705 35.7559C26.9993 35.4645 27.5465 35.2832 28.2997 35.2832V31.2832ZM24.3257 32.4452C23.2422 33.1781 22.3997 34.1453 21.8183 35.3187L25.4024 37.0946C25.6786 36.5373 26.06 36.1012 26.5669 35.7583L24.3257 32.4452ZM21.8183 35.3187C21.2492 36.4672 20.9672 37.6997 20.9672 38.9899H24.9672C24.9672 38.2998 25.1139 37.6769 25.4024 37.0946L21.8183 35.3187ZM20.9672 38.9899V40.5803H24.9672V38.9899H20.9672ZM20.9672 40.5803C20.9672 42.1591 21.2387 43.6312 21.877 44.9185L25.4606 43.1415C25.1634 42.5422 24.9672 41.7144 24.9672 40.5803H20.9672ZM21.8859 44.9363C22.5217 46.187 23.4379 47.1979 24.6374 47.8976L26.6529 44.4425C26.1684 44.1599 25.7671 43.7441 25.4517 43.1237L21.8859 44.9363ZM24.6494 47.9045C25.8369 48.5863 27.1686 48.8951 28.5803 48.8951V44.8951C27.7624 44.8951 27.1373 44.7205 26.6409 44.4355L24.6494 47.9045ZM28.5803 48.8951C29.4909 48.8951 30.372 48.7677 31.2 48.4807L29.8898 44.7013C29.5485 44.8197 29.1198 44.8951 28.5803 44.8951V48.8951ZM31.2145 48.4756C32.06 48.1752 32.8194 47.7174 33.4646 47.0956L30.6891 44.2153C30.4767 44.42 30.2149 44.5858 29.8754 44.7064L31.2145 48.4756ZM33.478 47.0826C34.1366 46.436 34.6184 45.6577 34.9435 44.7907L31.1982 43.3862C31.0555 43.7667 30.8747 44.033 30.6757 44.2284L33.478 47.0826ZM32.5303 46.0141L35.1966 46.7625L36.2776 42.9113L33.6114 42.1629L32.5303 46.0141ZM33.827 44.2441C33.6398 44.8474 33.3306 45.3703 32.8836 45.833L35.7606 48.612C36.639 47.7026 37.2731 46.6351 37.6472 45.4297L33.827 44.2441ZM32.8916 45.8248C32.4466 46.2802 31.8748 46.6614 31.1364 46.9508L32.5963 50.6749C33.807 50.2003 34.8723 49.5213 35.7527 48.6202L32.8916 45.8248ZM31.1494 46.9458C30.4381 47.2189 29.5912 47.3742 28.5803 47.3742V51.3742C30.0018 51.3742 31.3456 51.1553 32.5833 50.68L31.1494 46.9458ZM41.7917 31.0379L43.5173 30.0267L42.9378 29.0379H41.7917V31.0379ZM46.0951 38.3818L44.3696 39.3929L46.0951 42.3376L47.8207 39.3929L46.0951 38.3818ZM50.3986 31.0379V29.0379H49.2524L48.673 30.0267L50.3986 31.0379ZM53.5793 31.0379L55.2594 32.1229L57.2519 29.0379H53.5793V31.0379ZM47.7791 40.0189L46.099 38.9339L45.3982 40.0189L46.099 41.104L47.7791 40.0189ZM53.5793 49V51H57.2519L55.2594 47.9149L53.5793 49ZM50.3986 49L48.6968 50.0507L49.2829 51H50.3986V49ZM46.0951 42.0303L47.7969 40.9796L46.0951 38.2235L44.3934 40.9796L46.0951 42.0303ZM41.7917 49V51H42.9073L43.4935 50.0507L41.7917 49ZM38.6109 49L36.9229 47.9274L34.9705 51H38.6109V49ZM44.3176 40.0189L46.0057 41.0916L46.6872 40.0189L46.0057 38.9463L44.3176 40.0189ZM38.6109 31.0379V29.0379H34.9705L36.9229 32.1105L38.6109 31.0379ZM40.0662 32.0491L44.3696 39.3929L47.8207 37.3706L43.5173 30.0267L40.0662 32.0491ZM47.8207 39.3929L52.1241 32.0491L48.673 30.0267L44.3696 37.3706L47.8207 39.3929ZM50.3986 33.0379H53.5793V29.0379H50.3986V33.0379ZM51.8993 29.9528L46.099 38.9339L49.4592 41.104L55.2594 32.1229L51.8993 29.9528ZM46.099 41.104L51.8993 50.0851L55.2594 47.9149L49.4592 38.9339L46.099 41.104ZM53.5793 47H50.3986V51H53.5793V47ZM52.1003 47.9493L47.7969 40.9796L44.3934 43.0811L48.6968 50.0507L52.1003 47.9493ZM44.3934 40.9796L40.09 47.9493L43.4935 50.0507L47.7969 43.0811L44.3934 40.9796ZM41.7917 47H38.6109V51H41.7917V47ZM40.299 50.0726L46.0057 41.0916L42.6296 38.9463L36.9229 47.9274L40.299 50.0726ZM46.0057 38.9463L40.299 29.9653L36.9229 32.1105L42.6296 41.0916L46.0057 38.9463ZM38.6109 33.0379H41.7917V29.0379H38.6109V33.0379ZM65.329 31.0379H67.329V29.0379H65.329V31.0379ZM65.329 33.3767V35.3767H67.329V33.3767H65.329ZM56.0205 33.3767H54.0205V35.3767H56.0205V33.3767ZM56.0205 31.0379V29.0379H54.0205V31.0379H56.0205ZM58.7335 26.7345V24.7345H56.7335V26.7345H58.7335ZM61.4933 26.7345H63.4933V24.7345H61.4933V26.7345ZM61.8324 45.6087L60.1024 46.6122L60.1143 46.6327L60.1267 46.653L61.8324 45.6087ZM62.7212 46.3805L62.0279 48.2565L62.0522 48.2655L62.0767 48.2738L62.7212 46.3805ZM64.6273 46.5209L64.9433 48.4957L64.9816 48.4896L65.0196 48.482L64.6273 46.5209ZM65.0951 46.4273L67.0457 45.9857L66.6151 44.0837L64.7029 44.4661L65.0951 46.4273ZM65.6564 48.9064L66.3587 50.7791L67.9923 50.1665L67.607 48.4648L65.6564 48.9064ZM64.8729 49.1169L64.4632 47.1594L64.4415 47.1639L64.4199 47.1689L64.8729 49.1169ZM61.3062 48.731L60.4815 50.5531L60.4886 50.5563L61.3062 48.731ZM59.4585 47.1991L57.8236 48.351L57.8279 48.3572L57.8323 48.3633L59.4585 47.1991ZM63.329 31.0379V33.3767H67.329V31.0379H63.329ZM65.329 31.3767H56.0205V35.3767H65.329V31.3767ZM58.0205 33.3767V31.0379H54.0205V33.3767H58.0205ZM56.0205 33.0379H65.329V29.0379H56.0205V33.0379ZM58.7335 28.7345H61.4933V24.7345H58.7335V28.7345ZM59.4933 26.7345V43.8546H63.4933V26.7345H59.4933ZM59.4933 43.8546C59.4933 44.762 59.6133 45.769 60.1024 46.6122L63.5625 44.6053C63.5912 44.6547 63.5687 44.6374 63.5417 44.4982C63.5155 44.3624 63.4933 44.1536 63.4933 43.8546H59.4933ZM60.1267 46.653C60.5532 47.3496 61.1784 47.9426 62.0279 48.2565L63.4145 44.5045C63.4389 44.5136 63.4635 44.5253 63.4869 44.5392C63.5102 44.553 63.5284 44.5668 63.5414 44.5781C63.5679 44.6011 63.5631 44.6052 63.5381 44.5644L60.1267 46.653ZM62.0767 48.2738C62.6603 48.4725 63.2647 48.5676 63.8789 48.5676V44.5676C63.6823 44.5676 63.5149 44.538 63.3657 44.4872L62.0767 48.2738ZM63.8789 48.5676C64.2387 48.5676 64.604 48.55 64.9433 48.4957L64.3114 44.546C64.2609 44.5541 64.1272 44.5676 63.8789 44.5676V48.5676ZM65.0196 48.482C65.2145 48.443 65.3704 48.4119 65.4873 48.3885L64.7029 44.4661C64.5859 44.4895 64.43 44.5207 64.2351 44.5597L65.0196 48.482ZM63.1445 46.869L63.7058 49.3481L67.607 48.4648L67.0457 45.9857L63.1445 46.869ZM64.9542 47.0338C64.9059 47.0519 64.7584 47.0976 64.4632 47.1594L65.2826 51.0745C65.6579 50.996 66.0327 50.9014 66.3587 50.7791L64.9542 47.0338ZM64.4199 47.1689C64.2868 47.1999 64.0274 47.2339 63.5983 47.2339V51.2339C64.1981 51.2339 64.7886 51.1899 65.3259 51.065L64.4199 47.1689ZM63.5983 47.2339C63.115 47.2339 62.6287 47.1319 62.1238 46.9058L60.4886 50.5563C61.4806 51.0006 62.5223 51.2339 63.5983 51.2339V47.2339ZM62.1309 46.909C61.7231 46.7244 61.3793 46.4463 61.0848 46.0349L57.8323 48.3633C58.5201 49.324 59.4081 50.0672 60.4815 50.5531L62.1309 46.909ZM61.0935 46.0472C60.9003 45.773 60.7335 45.3372 60.7335 44.603H56.7335C56.7335 45.9582 57.0501 47.2531 57.8236 48.351L61.0935 46.0472ZM60.7335 44.603V26.7345H56.7335V44.603H60.7335Z" fill="black" mask="url(#path-1-outside-1_104_3)"/>
</svg>
