<svg width="68" height="74" viewBox="0 0 68 74" fill="none" xmlns="http://www.w3.org/2000/svg">
<path d="M30.1912 11.9437V24.6765H6C4.83045 24.6765 3.88234 25.6246 3.88234 26.7941L3.88234 47.8676C3.88234 49.0372 4.83045 49.9853 6 49.9853H30.1912V62.5717C30.1912 65.8117 34.1117 67.4306 36.3977 65.1346L60.937 40.487C62.9475 38.4677 62.9214 35.1951 60.8789 33.2081L36.3484 9.3435C34.0491 7.10661 30.1912 8.7358 30.1912 11.9437Z" fill="#F5FAFD" stroke="black" stroke-width="2.23531"/>
<path d="M11.0036 29.5442H35.7206C36.4597 29.5442 37.0588 28.945 37.0588 28.2059V18.5125L55.523 36.8309L37.0588 55.1493V45.4559C37.0588 44.7168 36.4597 44.1176 35.7206 44.1176H11.0036C10.9143 44.1176 10.8418 44.0452 10.8418 43.9559L10.8418 29.7059C10.8418 29.6166 10.9143 29.5442 11.0036 29.5442Z" fill="black" stroke="black" stroke-width="1.67648"/>
</svg>
