<svg width="68" height="74" viewBox="0 0 68 74" fill="none" xmlns="http://www.w3.org/2000/svg">
<path d="M40.906 28.949L36.5075 13.3146C35.8305 10.9083 32.4195 10.9083 31.7425 13.3146L27.344 28.949C27.3167 29.046 27.2282 29.1131 27.1274 29.1131H8.6775C6.7366 29.1131 5.90755 31.5796 7.45436 32.7519L21.6718 43.5274C21.7468 43.5842 21.7785 43.6817 21.7513 43.7718L16.9326 59.712C16.3746 61.558 18.4685 63.0653 20.0419 61.9501L33.9803 52.0714C34.0594 52.0153 34.1656 52.0162 34.2437 52.0737L48.1797 62.3224C49.7425 63.4717 51.8711 61.9778 51.3214 60.1173L46.4933 43.7742C46.4667 43.6845 46.4986 43.5877 46.5731 43.5312L60.7956 32.7519C62.3425 31.5796 61.5134 29.1131 59.5725 29.1131H41.1226C41.0218 29.1131 40.9333 29.046 40.906 28.949Z" fill="#F5FAFD" stroke="black" stroke-width="2.25"/>
</svg>
