<svg width="68" height="74" viewBox="0 0 68 74" fill="none" xmlns="http://www.w3.org/2000/svg">
<path d="M37.8088 62.7181V49.9853H62C63.1695 49.9853 64.1177 49.0372 64.1177 47.8676L64.1177 26.7941C64.1177 25.6246 63.1695 24.6764 62 24.6764L37.8088 24.6764L37.8088 12.09C37.8088 8.85005 33.8883 7.23115 31.6023 9.52718L7.06298 34.1747C5.05249 36.1941 5.0786 39.4666 7.12106 41.4536L31.6516 65.3182C33.9509 67.5551 37.8088 65.9259 37.8088 62.7181Z" fill="#F5FAFD" stroke="black" stroke-width="2.23531"/>
<path d="M56.9964 45.1176L32.2794 45.1176C31.5403 45.1176 30.9412 45.7167 30.9412 46.4558L30.9412 56.1492L12.477 37.8308L30.9412 19.5124L30.9412 29.2059C30.9412 29.9449 31.5403 30.5441 32.2794 30.5441L56.9964 30.5441C57.0857 30.5441 57.1582 30.6165 57.1582 30.7059L57.1582 44.9558C57.1582 45.0451 57.0857 45.1176 56.9964 45.1176Z" fill="black" stroke="black" stroke-width="1.67648"/>
</svg>
