<svg width="68" height="74" viewBox="0 0 68 74" fill="none" xmlns="http://www.w3.org/2000/svg">
<path d="M59.7181 33.1912H46.9853V9C46.9853 7.83045 46.0372 6.88234 44.8676 6.88234L23.7941 6.88234C22.6246 6.88234 21.6764 7.83045 21.6764 9V33.1912H9.09001C5.85005 33.1912 4.23115 37.1117 6.52718 39.3977L31.1747 63.937C33.1941 65.9475 36.4666 65.9214 38.4536 63.8789L62.3182 39.3484C64.5551 37.0491 62.9259 33.1912 59.7181 33.1912Z" fill="#F5FAFD" stroke="black" stroke-width="2.23531"/>
<path d="M42.1176 14.0037V38.7206C42.1176 39.4597 42.7168 40.0589 43.4559 40.0589H53.1493L34.8309 58.523L16.5125 40.0589H26.2059C26.945 40.0589 27.5442 39.4597 27.5442 38.7206V14.0037C27.5442 13.9143 27.6166 13.8419 27.7059 13.8419L41.9559 13.8419C42.0452 13.8419 42.1176 13.9143 42.1176 14.0037Z" fill="black" stroke="black" stroke-width="1.67648"/>
</svg>
