<svg width="68" height="74" viewBox="0 0 68 74" fill="none" xmlns="http://www.w3.org/2000/svg">
<circle cx="33.5" cy="37.5" r="26.365" fill="#060B05" stroke="#F465FB" stroke-width="4.26998"/>
<path d="M32.6299 36.426L32.7324 36.4644C33.9043 36.9038 34.8666 37.7702 35.4263 38.8897C35.9966 40.0302 36.1029 41.3554 35.7279 42.5742C35.2198 44.2254 33.8935 45.511 32.2241 45.9562L31.5494 46.1361C30.275 46.476 28.9617 46.6481 27.6427 46.6481H26.1111L23.1969 46.3831C22.5631 46.3255 21.9419 46.1717 21.3545 45.9269L20.8454 45.7148C19.0783 44.9785 17.7933 43.4112 17.4179 41.5339L17.3335 41.1117C17.3211 41.0497 17.3148 40.9866 17.3148 40.9233C17.3148 40.3929 17.7448 39.9629 18.2753 39.9629H19.7778H21.8699C22.3214 39.9629 22.743 40.1885 22.9934 40.5642L23.4383 41.2314C23.8023 41.7775 24.338 42.1867 24.9607 42.3942C25.7226 42.6482 26.523 42.7795 27.3168 42.6566C27.7084 42.5959 28.08 42.5255 28.3162 42.4786C28.4871 42.4447 28.6485 42.3762 28.7935 42.2796L28.8369 42.2506C29.7594 41.6356 29.8304 40.3061 28.9787 39.5964L28.9431 39.5667C28.7018 39.3656 28.4094 39.2357 28.0985 39.1912L26.1111 38.9073L22.9444 38.5555H21.3873C20.1424 38.5555 18.9596 38.0115 18.1495 37.0663C17.6051 36.4311 17.2595 35.6499 17.1557 34.8199L17.1265 34.5858C17.0194 33.7292 17.1422 32.8595 17.4823 32.0659C17.833 31.2475 18.4017 30.541 19.1262 30.0235L19.2762 29.9163C20.0658 29.3524 20.9897 29.0047 21.957 28.9281C23.2292 28.8274 25.075 28.7036 26.463 28.7036C27.7455 28.7036 29.4191 28.8093 30.6697 28.9049C31.8244 28.9931 32.9109 29.4701 33.7764 30.2395L34.2962 30.7015C35.1326 31.4449 35.6111 32.5105 35.6111 33.6295C35.6111 34.0182 35.296 34.3332 34.9074 34.3332H34.5555H30.3333H29.8099C29.4972 34.3332 29.2246 34.1204 29.1487 33.817L29.1012 33.627C28.9927 33.1931 28.661 32.8501 28.231 32.7273C27.0754 32.3971 25.8505 32.3971 24.6949 32.7273L24.5978 32.755C24.2237 32.8619 23.9264 33.1465 23.8034 33.5156L23.73 33.7357C23.6769 33.8952 23.6769 34.0676 23.73 34.2271L23.9174 34.7891C23.9709 34.9497 24.0765 35.0879 24.2173 35.1818C24.7691 35.5497 25.3963 35.7893 26.0528 35.8831L27.393 36.0746C27.4766 36.0865 27.5609 36.0925 27.6453 36.0925H30.7911C31.4191 36.0925 32.0419 36.2055 32.6299 36.426Z" fill="#F465FB"/>
<path d="M47.9259 45.2405V30.1108H44.0555L42.2963 32.9257H39.1296V35.7405H43.3518V45.2405H47.9259Z" fill="#F465FB"/>
</svg>
