<svg width="68" height="74" viewBox="0 0 68 74" fill="none" xmlns="http://www.w3.org/2000/svg">
<circle cx="33.9" cy="36.9" r="29.9" fill="#5DD3FF"/>
<mask id="path-2-inside-1_341_5" fill="white">
<path d="M30.5667 42.0025V25.8967H24.4312V26.6637V47.3711H45.1386V42.0025H30.5667Z"/>
</mask>
<path d="M30.5667 42.0025V25.8967H24.4312V26.6637V47.3711H45.1386V42.0025H30.5667Z" fill="black"/>
<path d="M30.5667 25.8967H75.58V-19.1166H30.5667V25.8967ZM30.5667 42.0025H-14.4467V87.0158H30.5667V42.0025ZM45.1386 42.0025H90.1519V-3.01084H45.1386V42.0025ZM45.1386 47.3711V92.3844H90.1519V47.3711H45.1386ZM24.4312 47.3711H-20.5822V92.3844H24.4312V47.3711ZM24.4312 25.8967V-19.1166H-20.5822V25.8967H24.4312ZM-14.4467 25.8967V42.0025H75.58V25.8967H-14.4467ZM30.5667 87.0158H45.1386V-3.01084H30.5667V87.0158ZM0.125237 42.0025V47.3711H90.1519V42.0025H0.125237ZM45.1386 2.35775H24.4312V92.3844H45.1386V2.35775ZM69.4445 47.3711V26.6637H-20.5822V47.3711H69.4445ZM69.4445 26.6637V25.8967H-20.5822V26.6637H69.4445ZM24.4312 70.9101H30.5667V-19.1166H24.4312V70.9101Z" fill="black" mask="url(#path-2-inside-1_341_5)"/>
</svg>
