<svg width="68" height="74" viewBox="0 0 68 74" fill="none" xmlns="http://www.w3.org/2000/svg">
<circle cx="33.5" cy="37.5" r="26.5" fill="#5DD3FF"/>
<mask id="path-2-inside-1_341_5" fill="white">
<path d="M30.5457 42.0224V27.748H25.1079V28.4278V46.7805H43.4606V42.0224H30.5457Z"/>
</mask>
<path d="M30.5457 42.0224V27.748H25.1079V28.4278V46.7805H43.4606V42.0224H30.5457Z" fill="black"/>
<path d="M30.5457 27.748H75.5591V-17.2653H30.5457V27.748ZM30.5457 42.0224H-14.4676V87.0357H30.5457V42.0224ZM43.4606 42.0224H88.474V-2.99095H43.4606V42.0224ZM43.4606 46.7805V91.7939H88.474V46.7805H43.4606ZM25.1079 46.7805H-19.9054V91.7939H25.1079V46.7805ZM25.1079 27.748V-17.2653H-19.9054V27.748H25.1079ZM-14.4676 27.748V42.0224H75.5591V27.748H-14.4676ZM30.5457 87.0357H43.4606V-2.99095H30.5457V87.0357ZM-1.55271 42.0224V46.7805H88.474V42.0224H-1.55271ZM43.4606 1.76717H25.1079V91.7939H43.4606V1.76717ZM70.1212 46.7805V28.4278H-19.9054V46.7805H70.1212ZM70.1212 28.4278V27.748H-19.9054V28.4278H70.1212ZM25.1079 72.7614H30.5457V-17.2653H25.1079V72.7614Z" fill="black" mask="url(#path-2-inside-1_341_5)"/>
</svg>
