<svg width="68" height="74" viewBox="0 0 68 74" fill="none" xmlns="http://www.w3.org/2000/svg">
<circle cx="33.5" cy="37.5" r="26.365" fill="#060B05" stroke="#16BDA9" stroke-width="4.27"/>
<path d="M29.1114 37.1296L29.2139 37.168C30.3857 37.6074 31.3481 38.4738 31.9078 39.5933C32.4781 40.7338 32.5844 42.059 32.2093 43.2778C31.7013 44.9291 30.375 46.2146 28.7056 46.6598L28.0309 46.8397C26.7565 47.1796 25.4432 47.3517 24.1242 47.3517H22.5926L19.6784 47.0867C19.0446 47.0291 18.4234 46.8753 17.836 46.6306L17.3269 46.4185C15.5598 45.6821 14.2748 44.1148 13.8994 42.2375L13.8149 41.8153C13.8025 41.7533 13.7963 41.6902 13.7963 41.6269C13.7963 41.0965 14.2263 40.6665 14.7567 40.6665H16.2593H18.3514C18.8029 40.6665 19.2245 40.8921 19.4749 41.2678L19.9198 41.935C20.2838 42.4811 20.8195 42.8903 21.4422 43.0978C22.2041 43.3518 23.0045 43.4831 23.7982 43.3602C24.1899 43.2995 24.5615 43.2291 24.7977 43.1822C24.9686 43.1483 25.13 43.0798 25.2749 42.9832L25.3184 42.9542C26.2409 42.3392 26.3119 41.0098 25.4602 40.3L25.4246 40.2703C25.1833 40.0693 24.8909 39.9393 24.58 39.8949L22.5926 39.6109L19.4259 39.2591H17.8688C16.6239 39.2591 15.4411 38.7151 14.6309 37.7699C14.0866 37.1348 13.741 36.3536 13.6372 35.5235L13.608 35.2895C13.5009 34.4328 13.6237 33.5631 13.9638 32.7696C14.3145 31.9511 14.8832 31.2447 15.6077 30.7271L15.7577 30.62C16.5473 30.056 17.4712 29.7083 18.4385 29.6317C19.7107 29.531 21.5565 29.4072 22.9444 29.4072C24.227 29.4072 25.9006 29.5129 27.1512 29.6085C28.3059 29.6967 29.3923 30.1737 30.2579 30.9431L30.7777 31.4051C31.6141 32.1485 32.0926 33.2141 32.0926 34.3332C32.0926 34.7218 31.7775 35.0369 31.3889 35.0369H31.037H26.8148H26.2914C25.9787 35.0369 25.706 34.824 25.6302 34.5206L25.5827 34.3306C25.4742 33.8968 25.1425 33.5538 24.7125 33.4309C23.5569 33.1007 22.332 33.1007 21.1764 33.4309L21.0793 33.4587C20.7052 33.5655 20.4079 33.8502 20.2849 34.2193L20.2115 34.4393C20.1584 34.5988 20.1584 34.7712 20.2115 34.9307L20.3989 35.4927C20.4524 35.6534 20.558 35.7915 20.6988 35.8855C21.2506 36.2533 21.8778 36.4929 22.5343 36.5867L23.8745 36.7782C23.958 36.7901 24.0424 36.7961 24.1268 36.7961H27.2726C27.9005 36.7961 28.5234 36.9091 29.1114 37.1296Z" fill="#16BDA9"/>
<path d="M38.0741 31.0456C35.8279 32.4853 35.2593 35.2679 35.2593 35.2679V35.9714H40.537L40.8889 35.2679C40.8889 35.2679 42.6482 33.4321 44.4074 33.5086C45.8208 33.57 47.5741 33.1567 47.5741 34.916C47.5741 36.6753 44.0556 37.4998 41.9444 38.2035C38.0951 39.4866 35.2593 41.9531 35.2593 41.9531V46.1753H52.8519V41.9531H42.6482C42.6482 41.9531 43.0069 41.6025 45.8148 40.6665C47.9259 39.9628 52.8519 39.2591 52.8519 34.916C52.8519 30.5729 48.6296 29.6383 48.6296 29.6383C48.6296 29.6383 41.9444 28.5648 38.0741 31.0456Z" fill="#16BDA9"/>
</svg>
