<svg width="68" height="74" viewBox="0 0 68 74" fill="none" xmlns="http://www.w3.org/2000/svg">
<path d="M13.36 49H9.335V29.12H3.28V25.795H19.555L19.275 29.12H13.36V49ZM32.872 44.275L34.552 46.76C32.172 48.44 29.617 49.385 26.292 49.385C20.797 49.385 18.207 46.375 18.207 40.495C18.207 34.93 20.902 30.975 26.747 30.975C32.172 30.975 34.622 34.265 34.237 40.915H22.197C22.232 44.695 23.877 46.445 26.922 46.445C29.232 46.445 31.437 45.465 32.872 44.275ZM22.232 38.36H30.387C30.422 35.63 29.232 33.67 26.502 33.67C23.807 33.67 22.407 35.77 22.232 38.36ZM51.0123 31.36L45.7973 39.515L51.6423 49L47.3023 49.35L43.2773 42.49C42.0173 44.625 40.7573 46.935 39.6023 49H35.5423L41.4923 39.83L36.2423 31.36L40.5823 31.01L44.0123 36.89C45.0623 35.035 46.0773 33.145 47.0223 31.36H51.0123ZM62.7986 45.955L63.3936 48.755C62.1336 49.175 60.6986 49.385 59.2986 49.385C55.9036 49.385 54.6086 47.985 54.6086 44.205V34.3H51.8786V31.36H54.6086V26.39L58.3886 25.935V31.36H63.1136L62.7636 34.3H58.3886V43.61C58.3886 45.395 58.7736 46.34 60.4886 46.34C61.2236 46.34 62.1336 46.2 62.7986 45.955Z" fill="#7F858E"/>
</svg>
