<svg width="68" height="74" viewBox="0 0 68 74" fill="none" xmlns="http://www.w3.org/2000/svg">
<circle cx="33.8899" cy="36.8899" r="29.612" fill="#060B05" stroke="#F465FB" stroke-width="4.5557"/>
<path d="M32.9163 35.688L33.0309 35.731C34.3422 36.2227 35.4191 37.1921 36.0454 38.4447C36.6835 39.7209 36.8023 41.2037 36.3827 42.5675C35.8142 44.4152 34.3302 45.8537 32.4623 46.3518L31.7073 46.5531C30.2813 46.9334 28.8118 47.1259 27.3359 47.1259H25.6221L22.3613 46.8295C21.6522 46.765 20.957 46.5929 20.2998 46.3191L19.7302 46.0817C17.7528 45.2578 16.315 43.504 15.8949 41.4035L15.8004 40.9311C15.7866 40.8617 15.7796 40.7911 15.7796 40.7203C15.7796 40.1268 16.2607 39.6456 16.8543 39.6456H18.5355H20.8765C21.3817 39.6456 21.8534 39.8981 22.1336 40.3184L22.6314 41.065C23.0387 41.6761 23.6382 42.1339 24.3349 42.3661C25.1875 42.6503 26.0831 42.7973 26.9712 42.6597C27.4094 42.5918 27.8252 42.5131 28.0895 42.4606C28.2807 42.4226 28.4613 42.346 28.6235 42.2379L28.6722 42.2054C29.7044 41.5173 29.7839 40.0297 28.8308 39.2355L28.7909 39.2023C28.521 38.9773 28.1938 38.8319 27.846 38.7822L25.6221 38.4645L22.0788 38.0708H20.3365C18.9435 38.0708 17.62 37.4621 16.7135 36.4044C16.1044 35.6938 15.7177 34.8197 15.6016 33.8909L15.5688 33.629C15.449 32.6705 15.5864 31.6973 15.967 30.8094C16.3594 29.8936 16.9957 29.1031 17.8064 28.524L17.9743 28.4041C18.8578 27.7731 19.8916 27.384 20.9739 27.2983C22.3975 27.1856 24.4628 27.0471 26.0158 27.0471C27.4509 27.0471 29.3236 27.1654 30.723 27.2723C32.015 27.371 33.2307 27.9047 34.1992 28.7656L34.7808 29.2826C35.7166 30.1145 36.2521 31.3068 36.2521 32.559C36.2521 32.9938 35.8996 33.3464 35.4647 33.3464H35.071H30.3466H29.7609C29.411 33.3464 29.1059 33.1082 29.021 32.7687L28.9679 32.5561C28.8465 32.0707 28.4753 31.6868 27.9941 31.5494C26.7011 31.1799 25.3305 31.1799 24.0375 31.5494L23.9288 31.5804C23.5102 31.7 23.1776 32.0185 23.0399 32.4315L22.9578 32.6778C22.8984 32.8562 22.8984 33.0491 22.9578 33.2275L23.1675 33.8565C23.2274 34.0362 23.3455 34.1908 23.5031 34.2959C24.1205 34.7075 24.8223 34.9756 25.5569 35.0806L27.0565 35.2948C27.15 35.3082 27.2444 35.3149 27.3388 35.3149H30.8587C31.5614 35.3149 32.2584 35.4413 32.9163 35.688Z" fill="#F465FB"/>
<path d="M50.0317 45.5513V28.6221H45.701L43.7324 31.7717H40.1891V34.9213H44.9135V45.5513H50.0317Z" fill="#F465FB"/>
</svg>
