<svg width="68" height="74" viewBox="0 0 68 74" fill="none" xmlns="http://www.w3.org/2000/svg">
<circle cx="33.89" cy="36.89" r="28.9971" fill="#060B05" stroke="#16BDA9" stroke-width="5.78571"/>
<path d="M28.9794 36.4756L29.094 36.5186C30.4053 37.0103 31.4821 37.9797 32.1084 39.2324C32.7465 40.5086 32.8654 41.9914 32.4458 43.3551C31.8773 45.2028 30.3932 46.6413 28.5253 47.1394L27.7704 47.3408C26.3444 47.721 24.8748 47.9136 23.399 47.9136H21.6852L18.4243 47.6172C17.7152 47.5527 17.0201 47.3806 16.3628 47.1067L15.7932 46.8694C13.8158 46.0455 12.3781 44.2917 11.9579 42.1911L11.8635 41.7187C11.8496 41.6493 11.8426 41.5787 11.8426 41.5079C11.8426 40.9144 12.3237 40.4332 12.9173 40.4332H14.5985H16.9395C17.4447 40.4332 17.9165 40.6857 18.1967 41.106L18.6944 41.8527C19.1018 42.4637 19.7012 42.9215 20.3979 43.1538C21.2505 43.438 22.1461 43.5849 23.0342 43.4473C23.4724 43.3794 23.8882 43.3007 24.1526 43.2482C24.3438 43.2103 24.5244 43.1336 24.6866 43.0255L24.7353 42.9931C25.7675 42.3049 25.8469 40.8173 24.8939 40.0232L24.854 39.9899C24.5841 39.765 24.2569 39.6195 23.909 39.5698L21.6852 39.2521L18.1418 38.8584H16.3995C15.0065 38.8584 13.6831 38.2497 12.7765 37.1921C12.1674 36.4814 11.7807 35.6073 11.6646 34.6785L11.6319 34.4166C11.512 33.4581 11.6494 32.4849 12.03 31.597C12.4225 30.6812 13.0587 29.8907 13.8695 29.3116L14.0373 29.1917C14.9208 28.5607 15.9547 28.1716 17.037 28.0859C18.4605 27.9732 20.5259 27.8347 22.0789 27.8347C23.514 27.8347 25.3866 27.953 26.786 28.0599C28.0781 28.1586 29.2937 28.6923 30.2623 29.5532L30.8439 30.0702C31.7797 30.9021 32.3152 32.0945 32.3152 33.3466C32.3152 33.7814 31.9626 34.134 31.5278 34.134H31.1341H26.4096H25.824C25.474 34.134 25.169 33.8958 25.0841 33.5563L25.031 33.3437C24.9096 32.8583 24.5384 32.4745 24.0572 32.337C22.7642 31.9676 21.3936 31.9676 20.1006 32.337L19.9919 32.368C19.5733 32.4876 19.2406 32.8061 19.103 33.2191L19.0209 33.4654C18.9614 33.6438 18.9614 33.8367 19.0209 34.0152L19.2305 34.6441C19.2904 34.8238 19.4085 34.9784 19.5662 35.0835C20.1836 35.4951 20.8854 35.7633 21.62 35.8682L23.1195 36.0824C23.213 36.0958 23.3074 36.1025 23.4019 36.1025H26.9218C27.6245 36.1025 28.3215 36.2289 28.9794 36.4756Z" fill="#16BDA9"/>
<path d="M39.0082 29.6679C36.4948 31.2789 35.8585 34.3925 35.8585 34.3925V35.1797H41.7641L42.1578 34.3925C42.1578 34.3925 44.1263 32.3383 46.0948 32.4239C47.6763 32.4927 49.6382 32.0301 49.6382 33.9987C49.6382 35.9673 45.7011 36.8899 43.3389 37.6773C39.0317 39.113 35.8585 41.8728 35.8585 41.8728V46.5973H55.5437V41.8728H44.1263C44.1263 41.8728 44.5277 41.4805 47.6696 40.4332C50.0319 39.6458 55.5437 38.8584 55.5437 33.9987C55.5437 29.139 50.8193 28.0932 50.8193 28.0932C50.8193 28.0932 43.3389 26.8921 39.0082 29.6679Z" fill="#16BDA9"/>
</svg>
